<?xml version="1.0" standalone="no"?>
<!DOCTYPE svg PUBLIC "-//W3C//DTD SVG 20010904//EN"
 "http://www.w3.org/TR/2001/REC-SVG-20010904/DTD/svg10.dtd">
<svg version="1.0" xmlns="http://www.w3.org/2000/svg"
 width="439.000000pt" height="246.000000pt" viewBox="0 0 439.000000 246.000000"
 preserveAspectRatio="xMidYMid meet">

<g transform="translate(0.000000,246.000000) scale(0.100000,-0.100000)"
fill="#000000" stroke="none">
<path d="M1220 2004 l0 -234 235 0 235 0 0 236 0 235 -235 -2 -235 -2 0 -233z
m408 -1 l-3 -168 -167 -3 -168 -2 0 170 0 170 170 0 170 0 -2 -167z"/>
<path d="M1373 2103 c-9 -3 -13 -34 -13 -104 l0 -99 100 0 100 0 0 99 c0 81
-3 100 -16 105 -19 7 -153 7 -171 -1z"/>
<path d="M1900 2175 l0 -65 30 0 30 0 0 65 0 65 -30 0 -30 0 0 -65z"/>
<path d="M2030 2205 c0 -33 2 -35 35 -35 33 0 35 -2 35 -34 0 -33 -2 -35 -32
-33 l-33 2 -3 -67 -3 -68 36 0 c33 0 35 2 35 35 0 33 2 35 35 35 33 0 35 -2
35 -35 0 -33 2 -35 33 -35 31 0 33 -2 33 -32 l-1 -33 68 -3 c67 -3 67 -3 67
-32 0 -17 6 -30 13 -31 6 -1 21 -2 32 -3 15 -1 21 -9 23 -33 3 -29 7 -33 33
-33 l29 0 0 65 0 65 -65 0 -65 0 0 35 0 35 100 0 100 0 0 -100 0 -100 35 0 35
0 0 100 0 100 -35 0 c-33 0 -35 2 -35 35 0 33 2 35 35 35 33 0 35 2 35 36 0
34 -1 35 -32 32 -29 -3 -33 -7 -36 -35 l-3 -33 -100 0 -99 0 0 -35 c0 -33 -2
-35 -35 -35 l-35 0 0 64 c0 76 0 76 116 76 l84 0 0 65 0 65 -65 0 -65 0 0 -35
c0 -33 -2 -35 -35 -35 -33 0 -35 2 -35 35 l0 35 -135 0 -135 0 0 -35z m205
-132 c1 -31 -1 -33 -32 -33 -31 0 -33 2 -33 36 0 34 1 35 32 32 28 -3 32 -7
33 -35z"/>
<path d="M2570 2205 c0 -33 2 -35 35 -35 33 0 35 2 35 35 0 33 -2 35 -35 35
-33 0 -35 -2 -35 -35z"/>
<path d="M2710 2005 l0 -235 235 0 235 0 0 235 0 235 -235 0 -235 0 0 -235z
m400 -5 l0 -170 -167 2 -168 3 -3 168 -2 167 170 0 170 0 0 -170z"/>
<path d="M2846 2102 c-3 -3 -6 -50 -6 -104 l0 -98 100 0 101 0 -3 103 -3 102
-92 2 c-50 0 -94 -1 -97 -5z"/>
<path d="M1760 2140 c0 -28 3 -30 35 -30 32 0 35 2 35 30 0 28 -3 30 -35 30
-32 0 -35 -2 -35 -30z"/>
<path d="M1760 2005 c0 -33 2 -35 35 -35 33 0 35 -2 35 -35 0 -33 -2 -35 -35
-35 l-35 0 0 -65 0 -65 35 0 c33 0 35 -2 35 -35 l0 -35 -100 0 -100 0 0 -35
c0 -33 -2 -35 -35 -35 -33 0 -35 2 -35 35 l0 35 -170 0 -170 0 0 -65 0 -65 35
0 c32 0 35 2 35 30 0 28 3 30 35 30 l35 0 0 -65 0 -65 -35 0 c-33 0 -35 -2
-35 -35 0 -33 -2 -35 -35 -35 -33 0 -35 -2 -35 -35 l0 -35 100 0 99 0 3 -132
3 -133 32 -3 32 -3 3 68 3 68 33 3 c31 3 32 2 32 -32 0 -35 1 -36 36 -36 34 0
35 -1 32 -32 -3 -29 -7 -33 -35 -36 l-33 -3 0 -65 0 -64 -34 0 c-32 0 -35 3
-38 33 l-3 32 -62 0 -63 0 0 32 0 33 -70 0 -70 0 0 -135 0 -135 35 0 35 0 0
99 c0 59 4 102 11 106 5 4 21 4 35 1 23 -6 24 -9 24 -106 l0 -100 29 0 c26 0
30 4 33 33 3 28 7 32 36 35 31 3 32 2 32 -32 0 -34 2 -36 35 -36 l35 0 0 70 0
70 65 0 65 0 0 35 0 35 70 0 70 0 0 29 c0 26 4 30 33 33 28 3 32 6 32 33 0 26
-4 30 -32 33 l-32 3 -3 67 c-3 70 -1 68 -53 63 -12 -1 -15 -19 -15 -101 l0
-100 -35 0 c-33 0 -35 2 -35 35 0 32 -3 35 -29 35 -30 0 -41 18 -33 53 2 11
13 17 33 17 28 0 30 2 27 33 -2 27 -7 32 -28 32 -21 0 -26 -5 -28 -32 -3 -30
-6 -33 -37 -33 -31 0 -34 3 -37 33 -3 29 -6 32 -35 29 -31 -2 -33 0 -33 33 0
33 -2 35 -35 35 -33 0 -35 2 -35 35 0 32 -2 35 -30 35 -28 0 -30 3 -30 35 0
32 2 35 30 35 29 0 29 1 32 63 l3 62 68 3 67 3 0 -31 c0 -28 3 -30 35 -30 32
0 35 2 35 30 0 27 3 30 31 30 28 0 30 -2 27 -32 -2 -21 -9 -33 -18 -34 -8 -1
-21 -2 -27 -2 -7 -1 -13 -15 -13 -32 l0 -30 -70 0 -70 0 0 -35 c0 -33 2 -35
35 -35 33 0 35 -2 35 -35 l0 -35 65 0 65 0 0 -30 c0 -28 3 -30 35 -30 32 0 35
2 35 30 l0 30 100 0 100 0 0 35 0 35 -65 0 -65 0 0 35 0 35 -70 0 -70 0 0 35
0 35 70 0 70 0 0 30 c0 28 3 30 35 30 l35 0 0 -65 0 -65 30 0 30 0 0 65 0 65
35 0 c32 0 35 -2 35 -30 0 -28 3 -30 35 -30 33 0 35 -2 35 -35 0 -33 -2 -35
-35 -35 l-35 0 0 -70 0 -70 35 0 c33 0 35 2 35 35 0 33 2 35 35 35 33 0 35 -2
35 -35 0 -33 2 -35 33 -35 l32 0 0 -63 0 -62 33 -3 c29 -3 32 -6 32 -38 0 -32
-2 -34 -35 -34 -33 0 -35 2 -35 35 0 32 -2 35 -30 35 -28 0 -30 -3 -30 -35 0
-32 3 -35 29 -35 24 0 29 -5 33 -30 3 -17 2 -32 0 -35 -3 -3 -50 -5 -104 -5
l-98 0 0 -29 c0 -26 4 -30 33 -33 28 -3 32 -7 35 -35 3 -32 2 -33 -32 -33
l-36 0 0 -70 0 -70 35 0 c33 0 35 2 35 35 0 33 2 35 35 35 33 0 35 -2 35 -35
l0 -35 66 0 65 0 -3 -32 c-3 -29 -6 -33 -33 -33 -27 0 -30 -4 -33 -32 -3 -29
-7 -33 -33 -33 -27 0 -29 -3 -29 -35 0 -32 3 -35 29 -35 30 0 41 -18 33 -52
-3 -16 -16 -18 -103 -18 l-100 0 3 68 3 67 33 3 c31 3 33 6 30 35 -3 32 -3 32
-68 35 -36 2 -80 0 -97 -3 l-33 -6 0 -64 0 -65 29 0 c26 0 30 -4 33 -32 3 -29
7 -33 36 -36 28 -3 32 -7 32 -33 0 -27 3 -29 35 -29 33 0 35 -2 35 -35 0 -33
-2 -35 -35 -35 l-35 0 0 -70 0 -70 35 0 c33 0 35 2 35 35 0 33 2 35 35 35 33
0 35 -2 35 -35 l0 -35 164 0 165 0 3 32 3 33 68 3 68 3 -3 67 -3 67 -30 0
c-26 1 -30 4 -33 33 l-3 32 135 0 136 0 0 -34 c0 -29 -3 -33 -24 -31 -33 4
-48 -8 -44 -36 3 -22 8 -24 71 -27 l67 -3 0 -34 c0 -33 2 -35 35 -35 33 0 35
2 35 35 0 32 2 35 29 35 26 0 30 -4 33 -32 3 -29 7 -33 35 -36 l32 -3 3 68 3
68 33 3 c28 3 32 7 32 33 0 27 -3 29 -35 29 -33 0 -35 2 -35 35 0 33 2 35 35
35 33 0 35 2 35 35 0 33 -2 35 -36 35 -34 0 -35 1 -32 33 3 28 7 32 36 35 28
3 32 7 32 33 0 27 -3 29 -35 29 -33 0 -35 2 -35 35 0 33 2 35 35 35 33 0 35 2
35 35 0 33 -2 35 -35 35 -33 0 -35 -2 -35 -34 0 -32 -3 -35 -32 -38 -29 -3
-33 -6 -33 -33 0 -27 4 -30 33 -33 28 -3 32 -7 32 -33 0 -19 -5 -29 -15 -30
-8 0 -36 -1 -62 -1 l-48 -1 -3 102 -3 101 -135 0 -135 0 3 33 3 32 134 3 133
3 -4 29 c-4 28 -2 30 29 30 30 0 33 -3 33 -30 0 -28 3 -30 35 -30 32 0 35 2
35 30 0 28 3 30 35 30 l35 0 0 70 0 70 -35 0 c-33 0 -35 -2 -35 -35 l0 -35
-67 0 -68 0 0 35 c0 33 2 35 32 35 l32 0 3 63 c3 62 3 62 36 65 30 3 32 1 32
-27 0 -29 3 -31 35 -31 l35 0 0 100 0 100 -71 0 -71 0 4 -70 4 -70 -68 0 -68
0 0 35 c0 33 2 35 35 35 33 0 35 2 35 35 l0 35 -71 0 -70 0 3 33 c3 28 7 32
36 35 28 3 32 7 32 32 0 25 4 29 33 32 28 3 32 7 35 36 3 31 2 32 -32 32 -34
0 -36 -2 -36 -35 0 -33 -2 -35 -35 -35 -33 0 -35 2 -35 36 0 34 -1 35 -32 32
l-33 -3 -3 -97 -3 -98 -29 0 c-28 0 -30 -3 -30 -35 0 -32 2 -35 30 -35 28 0
30 3 30 35 0 33 2 35 35 35 l35 0 0 -70 0 -70 -35 0 -35 0 0 -65 0 -65 -30 0
c-28 0 -30 -3 -30 -35 0 -32 2 -35 30 -35 28 0 30 -3 30 -35 0 -32 -2 -35 -30
-35 -27 0 -30 -3 -30 -33 0 -32 -2 -33 -35 -33 l-35 1 0 68 0 68 -67 -3 -68
-3 -3 -66 c-3 -65 -3 -66 -32 -66 -25 0 -29 4 -32 31 -3 27 -7 31 -35 34 l-33
3 0 -65 0 -66 35 0 c33 0 35 -2 35 -35 l0 -35 -135 0 -135 0 0 35 0 35 66 0
65 0 -3 33 c-3 28 -7 32 -33 32 -26 1 -30 5 -33 32 l-3 32 68 3 68 3 3 68 3
67 -36 0 c-35 0 -36 1 -33 33 l3 32 68 3 67 3 0 -71 0 -70 30 0 30 0 0 65 c0
45 -4 65 -12 67 -7 0 -20 1 -28 2 -9 1 -16 13 -18 34 -3 30 -1 32 28 32 l31 0
-3 103 c-3 101 -3 102 -28 102 -24 0 -25 -3 -28 -67 l-3 -68 -34 0 c-33 0 -35
-2 -35 -35 l0 -36 -67 3 -68 3 -3 33 c-3 28 -7 32 -33 32 -27 0 -29 3 -29 35
l0 35 65 0 65 0 0 65 0 65 -135 0 -135 0 0 70 0 70 35 0 35 0 0 65 0 65 -70 0
-70 0 0 -30 c0 -28 3 -30 35 -30 33 0 35 -2 35 -35 0 -33 -2 -35 -35 -35 -32
0 -35 2 -35 30 0 27 -3 30 -30 30 -27 0 -30 -3 -30 -30 0 -28 -3 -30 -36 -30
-34 0 -35 1 -32 33 3 28 7 32 36 35 l32 3 0 65 0 64 30 0 c28 0 30 3 30 35 l0
35 -100 0 -100 0 0 -35z m200 -340 c0 -32 -2 -35 -30 -35 -28 0 -30 3 -30 35
0 32 2 35 30 35 28 0 30 -3 30 -35z m-270 -200 c0 -32 -2 -35 -30 -35 -28 0
-30 3 -30 35 0 32 2 35 30 35 28 0 30 -3 30 -35z m1285 -200 c0 -27 -4 -30
-32 -33 -30 -3 -33 -1 -33 26 0 36 8 44 40 40 20 -2 25 -8 25 -33z m-135 -70
l0 -34 68 -3 67 -3 0 -30 0 -30 -67 -3 -68 -3 0 36 c0 33 -2 35 -35 35 -33 0
-35 2 -35 35 0 33 2 35 35 35 33 0 35 -2 35 -35z m-1150 -134 c0 -24 -5 -29
-30 -33 -28 -4 -30 -3 -30 29 0 30 3 33 30 33 26 0 30 -3 30 -29z m880 -66 c0
-33 2 -35 35 -35 33 0 35 -2 35 -35 0 -33 -2 -35 -35 -35 -33 0 -35 -2 -35
-35 l0 -35 -65 0 -65 0 0 -30 c0 -16 -4 -30 -10 -31 -50 -6 -55 -3 -58 29 -3
31 -2 32 32 32 34 0 36 2 36 35 l0 35 65 0 65 0 0 35 c0 33 -2 35 -35 35 -32
0 -35 3 -35 29 0 31 10 39 48 40 19 1 22 -4 22 -34z m270 -275 l0 -100 -100 0
-100 0 0 100 0 100 100 0 100 0 0 -100z m-270 -100 l0 -70 -65 0 -65 0 0 35 0
35 -70 0 -70 0 0 28 c0 16 3 32 7 35 3 4 64 7 135 7 l128 0 0 -70z m470 35 c0
-32 -2 -35 -30 -35 -28 0 -30 3 -30 35 0 32 2 35 30 35 28 0 30 -3 30 -35z
m-672 -137 l-3 -32 -60 1 c-33 1 -63 2 -67 2 -5 1 -8 15 -8 31 l0 30 71 0 70
0 -3 -32z m677 2 c0 -16 -2 -30 -5 -31 -3 0 -32 -2 -65 -2 l-60 -2 -3 33 -3
32 68 0 68 0 0 -30z m-607 -102 l3 -68 -136 0 -135 0 0 35 0 35 100 0 100 0 0
36 c0 34 1 35 33 32 l32 -3 3 -67z m132 37 c0 -33 -2 -35 -35 -35 -32 0 -35 3
-35 28 0 36 6 42 42 42 25 0 28 -3 28 -35z"/>
<path d="M2717 754 c-4 -4 -7 -20 -7 -36 0 -25 4 -28 31 -28 28 0 30 2 27 33
-2 23 -8 33 -23 35 -12 2 -24 0 -28 -4z"/>
<path d="M2170 1768 l0 -68 30 0 31 0 -3 67 c-3 65 -4 66 -30 67 -28 2 -28 1
-28 -66z"/>
<path d="M2328 1832 c-27 -3 -28 -5 -28 -68 l0 -64 35 0 35 0 0 -65 0 -65 35
0 c32 0 35 2 35 30 l0 30 65 0 65 0 0 -165 0 -165 35 0 c33 0 35 -2 35 -36 0
-34 1 -35 33 -32 28 3 32 6 32 33 0 27 -3 30 -30 30 l-30 1 0 134 0 135 33 3
32 3 0 65 0 64 -170 0 -170 0 0 64 c0 36 -3 66 -7 68 -5 2 -20 2 -35 0z"/>
<path d="M3044 1686 c-12 -31 1 -51 34 -54 28 -3 32 -7 32 -33 0 -27 3 -29 35
-29 32 0 35 2 35 30 0 28 -3 30 -35 30 -33 0 -35 2 -35 35 0 32 -2 35 -30 35
-17 0 -33 -6 -36 -14z"/>
<path d="M2980 1600 c0 -27 3 -30 30 -30 27 0 30 3 30 30 0 27 -3 30 -30 30
-27 0 -30 -3 -30 -30z"/>
<path d="M1225 1291 c-3 -2 -5 -17 -5 -33 0 -25 3 -28 35 -28 33 0 35 -2 35
-35 0 -33 2 -35 35 -35 l36 0 -3 68 -3 67 -63 1 c-34 0 -65 -2 -67 -5z"/>
<path d="M1964 1287 c-2 -7 -4 -54 -2 -103 l3 -89 30 0 c30 0 30 1 35 65 l5
65 33 3 c31 3 33 6 30 35 -3 32 -3 32 -66 35 -46 2 -64 -1 -68 -11z"/>
<path d="M1900 1025 l0 -65 -70 0 -70 0 0 -35 0 -35 -65 0 -65 0 0 -35 0 -35
65 0 65 0 0 -65 0 -65 34 0 c32 0 35 3 38 33 3 28 7 32 36 35 28 3 32 7 32 33
0 26 3 29 30 29 28 0 30 3 30 35 0 32 -2 35 -30 35 -28 0 -30 3 -30 35 0 32 2
35 30 35 l30 0 0 65 0 65 -30 0 -30 0 0 -65z"/>
<path d="M1225 752 c-3 -3 -5 -110 -5 -239 l0 -233 235 0 235 0 0 241 0 240
-230 -2 c-126 -1 -231 -4 -235 -7z m405 -232 l0 -170 -170 0 -170 0 0 170 0
170 170 0 170 0 0 -170z"/>
<path d="M1360 520 l0 -100 100 0 100 0 0 100 0 100 -100 0 -100 0 0 -100z"/>
<path d="M1760 450 l0 -170 35 0 c33 0 35 2 35 35 0 33 2 35 35 35 l35 0 0
100 0 100 -35 0 c-33 0 -35 2 -35 35 0 33 -2 35 -35 35 l-35 0 0 -170z"/>
<path d="M2710 315 c0 -32 2 -35 30 -35 28 0 30 3 30 35 0 32 -2 35 -30 35
-28 0 -30 -3 -30 -35z"/>
</g>
</svg>
